<svg width="850" height="1200" version="1.1" xmlns:xlink="http://www.w3.org/1999/xlink" xmlns="http://www.w3.org/2000/svg"><defs><style type="text/css"></style></defs><defs><style type="text/css"></style></defs><g transform="translate(10,20)"><image x="454.425" y="925.6800000000001" width="300" height="209.1458153580673" xlink:href="key.png"></image><path d="M4.446998689403826e-15,-72.625L62.895094949844854,-36.3125L62.89509494984486,36.312499999999986L4.446998689403826e-15,72.625L-62.89509494984485,36.31250000000002L-62.895094949844854,-36.31250000000001Z" fill="gray" fill-opacity="0.1" stroke="gray" stroke-width="2" transform="translate(103.75,116)"></path><path d="M4.446998689403826e-15,-72.625L62.895094949844854,-36.3125L62.89509494984486,36.312499999999986L4.446998689403826e-15,72.625L-62.89509494984485,36.31250000000002L-62.895094949844854,-36.31250000000001Z" fill="gray" fill-opacity="0.1" stroke="gray" stroke-width="2" transform="translate(311.25,116)"></path><path d="M4.446998689403826e-15,-72.625L62.895094949844854,-36.3125L62.89509494984486,36.312499999999986L4.446998689403826e-15,72.625L-62.89509494984485,36.31250000000002L-62.895094949844854,-36.31250000000001Z" fill="gray" fill-opacity="0.1" stroke="gray" stroke-width="2" transform="translate(518.75,116)"></path><path d="M4.446998689403826e-15,-72.625L62.895094949844854,-36.3125L62.89509494984486,36.312499999999986L4.446998689403826e-15,72.625L-62.89509494984485,36.31250000000002L-62.895094949844854,-36.31250000000001Z" fill="gray" fill-opacity="0.1" stroke="gray" stroke-width="2" transform="translate(726.25,116)"></path><path d="M4.446998689403826e-15,-72.625L62.895094949844854,-36.3125L62.89509494984486,36.312499999999986L4.446998689403826e-15,72.625L-62.89509494984485,36.31250000000002L-62.895094949844854,-36.31250000000001Z" fill="gray" fill-opacity="0.1" stroke="gray" stroke-width="2" transform="translate(103.75,348)"></path><path d="M4.446998689403826e-15,-72.625L62.895094949844854,-36.3125L62.89509494984486,36.312499999999986L4.446998689403826e-15,72.625L-62.89509494984485,36.31250000000002L-62.895094949844854,-36.31250000000001Z" fill="gray" fill-opacity="0.1" stroke="gray" stroke-width="2" transform="translate(311.25,348)"></path><path d="M4.446998689403826e-15,-72.625L62.895094949844854,-36.3125L62.89509494984486,36.312499999999986L4.446998689403826e-15,72.625L-62.89509494984485,36.31250000000002L-62.895094949844854,-36.31250000000001Z" fill="gray" fill-opacity="0.1" stroke="gray" stroke-width="2" transform="translate(518.75,348)"></path><path d="M4.446998689403826e-15,-72.625L62.895094949844854,-36.3125L62.89509494984486,36.312499999999986L4.446998689403826e-15,72.625L-62.89509494984485,36.31250000000002L-62.895094949844854,-36.31250000000001Z" fill="gray" fill-opacity="0.1" stroke="gray" stroke-width="2" transform="translate(726.25,348)"></path><path d="M4.446998689403826e-15,-72.625L62.895094949844854,-36.3125L62.89509494984486,36.312499999999986L4.446998689403826e-15,72.625L-62.89509494984485,36.31250000000002L-62.895094949844854,-36.31250000000001Z" fill="gray" fill-opacity="0.1" stroke="gray" stroke-width="2" transform="translate(103.75,580)"></path><path d="M4.446998689403826e-15,-72.625L62.895094949844854,-36.3125L62.89509494984486,36.312499999999986L4.446998689403826e-15,72.625L-62.89509494984485,36.31250000000002L-62.895094949844854,-36.31250000000001Z" fill="gray" fill-opacity="0.1" stroke="gray" stroke-width="2" transform="translate(311.25,580)"></path><path d="M4.446998689403826e-15,-72.625L62.895094949844854,-36.3125L62.89509494984486,36.312499999999986L4.446998689403826e-15,72.625L-62.89509494984485,36.31250000000002L-62.895094949844854,-36.31250000000001Z" fill="gray" fill-opacity="0.1" stroke="gray" stroke-width="2" transform="translate(518.75,580)"></path><path d="M4.446998689403826e-15,-72.625L62.895094949844854,-36.3125L62.89509494984486,36.312499999999986L4.446998689403826e-15,72.625L-62.89509494984485,36.31250000000002L-62.895094949844854,-36.31250000000001Z" fill="gray" fill-opacity="0.1" stroke="gray" stroke-width="2" transform="translate(726.25,580)"></path><path d="M4.446998689403826e-15,-72.625L62.895094949844854,-36.3125L62.89509494984486,36.312499999999986L4.446998689403826e-15,72.625L-62.89509494984485,36.31250000000002L-62.895094949844854,-36.31250000000001Z" fill="gray" fill-opacity="0.1" stroke="gray" stroke-width="2" transform="translate(103.75,812)"></path><path d="M4.446998689403826e-15,-72.625L62.895094949844854,-36.3125L62.89509494984486,36.312499999999986L4.446998689403826e-15,72.625L-62.89509494984485,36.31250000000002L-62.895094949844854,-36.31250000000001Z" fill="gray" fill-opacity="0.1" stroke="gray" stroke-width="2" transform="translate(311.25,812)"></path><path d="M4.446998689403826e-15,-72.625L62.895094949844854,-36.3125L62.89509494984486,36.312499999999986L4.446998689403826e-15,72.625L-62.89509494984485,36.31250000000002L-62.895094949844854,-36.31250000000001Z" fill="gray" fill-opacity="0.1" stroke="gray" stroke-width="2" transform="translate(518.75,812)"></path><path d="M4.446998689403826e-15,-72.625L62.895094949844854,-36.3125L62.89509494984486,36.312499999999986L4.446998689403826e-15,72.625L-62.89509494984485,36.31250000000002L-62.895094949844854,-36.31250000000001Z" fill="gray" fill-opacity="0.1" stroke="gray" stroke-width="2" transform="translate(726.25,812)"></path><path d="M4.446998689403826e-15,-72.625L62.895094949844854,-36.3125L62.89509494984486,36.312499999999986L4.446998689403826e-15,72.625L-62.89509494984485,36.31250000000002L-62.895094949844854,-36.31250000000001Z" fill="gray" fill-opacity="0.1" stroke="gray" stroke-width="2" transform="translate(103.75,1044)"></path><path d="M4.446998689403826e-15,-72.625L62.895094949844854,-36.3125L62.89509494984486,36.312499999999986L4.446998689403826e-15,72.625L-62.89509494984485,36.31250000000002L-62.895094949844854,-36.31250000000001Z" fill="gray" fill-opacity="0.1" stroke="gray" stroke-width="2" transform="translate(311.25,1044)"></path><path d="M4.446998689403826e-15,-72.625L4.446998689403826e-15,72.625" fill="none" stroke="gray" stroke-width="1" transform="translate(103.75,116)"></path><path d="M4.446998689403826e-15,-72.625L4.446998689403826e-15,72.625" fill="none" stroke="gray" stroke-width="1" transform="translate(311.25,116)"></path><path d="M4.446998689403826e-15,-72.625L4.446998689403826e-15,72.625" fill="none" stroke="gray" stroke-width="1" transform="translate(518.75,116)"></path><path d="M4.446998689403826e-15,-72.625L4.446998689403826e-15,72.625" fill="none" stroke="gray" stroke-width="1" transform="translate(726.25,116)"></path><path d="M4.446998689403826e-15,-72.625L4.446998689403826e-15,72.625" fill="none" stroke="gray" stroke-width="1" transform="translate(103.75,348)"></path><path d="M4.446998689403826e-15,-72.625L4.446998689403826e-15,72.625" fill="none" stroke="gray" stroke-width="1" transform="translate(311.25,348)"></path><path d="M4.446998689403826e-15,-72.625L4.446998689403826e-15,72.625" fill="none" stroke="gray" stroke-width="1" transform="translate(518.75,348)"></path><path d="M4.446998689403826e-15,-72.625L4.446998689403826e-15,72.625" fill="none" stroke="gray" stroke-width="1" transform="translate(726.25,348)"></path><path d="M4.446998689403826e-15,-72.625L4.446998689403826e-15,72.625" fill="none" stroke="gray" stroke-width="1" transform="translate(103.75,580)"></path><path d="M4.446998689403826e-15,-72.625L4.446998689403826e-15,72.625" fill="none" stroke="gray" stroke-width="1" transform="translate(311.25,580)"></path><path d="M4.446998689403826e-15,-72.625L4.446998689403826e-15,72.625" fill="none" stroke="gray" stroke-width="1" transform="translate(518.75,580)"></path><path d="M4.446998689403826e-15,-72.625L4.446998689403826e-15,72.625" fill="none" stroke="gray" stroke-width="1" transform="translate(726.25,580)"></path><path d="M4.446998689403826e-15,-72.625L4.446998689403826e-15,72.625" fill="none" stroke="gray" stroke-width="1" transform="translate(103.75,812)"></path><path d="M4.446998689403826e-15,-72.625L4.446998689403826e-15,72.625" fill="none" stroke="gray" stroke-width="1" transform="translate(311.25,812)"></path><path d="M4.446998689403826e-15,-72.625L4.446998689403826e-15,72.625" fill="none" stroke="gray" stroke-width="1" transform="translate(518.75,812)"></path><path d="M4.446998689403826e-15,-72.625L4.446998689403826e-15,72.625" fill="none" stroke="gray" stroke-width="1" transform="translate(726.25,812)"></path><path d="M4.446998689403826e-15,-72.625L4.446998689403826e-15,72.625" fill="none" stroke="gray" stroke-width="1" transform="translate(103.75,1044)"></path><path d="M4.446998689403826e-15,-72.625L4.446998689403826e-15,72.625" fill="none" stroke="gray" stroke-width="1" transform="translate(311.25,1044)"></path><path d="M62.895094949844854,-36.3125L-62.89509494984485,36.31250000000002" fill="none" stroke="gray" stroke-width="1" transform="translate(103.75,116)"></path><path d="M62.895094949844854,-36.3125L-62.89509494984485,36.31250000000002" fill="none" stroke="gray" stroke-width="1" transform="translate(311.25,116)"></path><path d="M62.895094949844854,-36.3125L-62.89509494984485,36.31250000000002" fill="none" stroke="gray" stroke-width="1" transform="translate(518.75,116)"></path><path d="M62.895094949844854,-36.3125L-62.89509494984485,36.31250000000002" fill="none" stroke="gray" stroke-width="1" transform="translate(726.25,116)"></path><path d="M62.895094949844854,-36.3125L-62.89509494984485,36.31250000000002" fill="none" stroke="gray" stroke-width="1" transform="translate(103.75,348)"></path><path d="M62.895094949844854,-36.3125L-62.89509494984485,36.31250000000002" fill="none" stroke="gray" stroke-width="1" transform="translate(311.25,348)"></path><path d="M62.895094949844854,-36.3125L-62.89509494984485,36.31250000000002" fill="none" stroke="gray" stroke-width="1" transform="translate(518.75,348)"></path><path d="M62.895094949844854,-36.3125L-62.89509494984485,36.31250000000002" fill="none" stroke="gray" stroke-width="1" transform="translate(726.25,348)"></path><path d="M62.895094949844854,-36.3125L-62.89509494984485,36.31250000000002" fill="none" stroke="gray" stroke-width="1" transform="translate(103.75,580)"></path><path d="M62.895094949844854,-36.3125L-62.89509494984485,36.31250000000002" fill="none" stroke="gray" stroke-width="1" transform="translate(311.25,580)"></path><path d="M62.895094949844854,-36.3125L-62.89509494984485,36.31250000000002" fill="none" stroke="gray" stroke-width="1" transform="translate(518.75,580)"></path><path d="M62.895094949844854,-36.3125L-62.89509494984485,36.31250000000002" fill="none" stroke="gray" stroke-width="1" transform="translate(726.25,580)"></path><path d="M62.895094949844854,-36.3125L-62.89509494984485,36.31250000000002" fill="none" stroke="gray" stroke-width="1" transform="translate(103.75,812)"></path><path d="M62.895094949844854,-36.3125L-62.89509494984485,36.31250000000002" fill="none" stroke="gray" stroke-width="1" transform="translate(311.25,812)"></path><path d="M62.895094949844854,-36.3125L-62.89509494984485,36.31250000000002" fill="none" stroke="gray" stroke-width="1" transform="translate(518.75,812)"></path><path d="M62.895094949844854,-36.3125L-62.89509494984485,36.31250000000002" fill="none" stroke="gray" stroke-width="1" transform="translate(726.25,812)"></path><path d="M62.895094949844854,-36.3125L-62.89509494984485,36.31250000000002" fill="none" stroke="gray" stroke-width="1" transform="translate(103.75,1044)"></path><path d="M62.895094949844854,-36.3125L-62.89509494984485,36.31250000000002" fill="none" stroke="gray" stroke-width="1" transform="translate(311.25,1044)"></path><path d="M62.89509494984486,36.312499999999986L-62.895094949844854,-36.31250000000001" fill="none" stroke="gray" stroke-width="1" transform="translate(103.75,116)"></path><path d="M62.89509494984486,36.312499999999986L-62.895094949844854,-36.31250000000001" fill="none" stroke="gray" stroke-width="1" transform="translate(311.25,116)"></path><path d="M62.89509494984486,36.312499999999986L-62.895094949844854,-36.31250000000001" fill="none" stroke="gray" stroke-width="1" transform="translate(518.75,116)"></path><path d="M62.89509494984486,36.312499999999986L-62.895094949844854,-36.31250000000001" fill="none" stroke="gray" stroke-width="1" transform="translate(726.25,116)"></path><path d="M62.89509494984486,36.312499999999986L-62.895094949844854,-36.31250000000001" fill="none" stroke="gray" stroke-width="1" transform="translate(103.75,348)"></path><path d="M62.89509494984486,36.312499999999986L-62.895094949844854,-36.31250000000001" fill="none" stroke="gray" stroke-width="1" transform="translate(311.25,348)"></path><path d="M62.89509494984486,36.312499999999986L-62.895094949844854,-36.31250000000001" fill="none" stroke="gray" stroke-width="1" transform="translate(518.75,348)"></path><path d="M62.89509494984486,36.312499999999986L-62.895094949844854,-36.31250000000001" fill="none" stroke="gray" stroke-width="1" transform="translate(726.25,348)"></path><path d="M62.89509494984486,36.312499999999986L-62.895094949844854,-36.31250000000001" fill="none" stroke="gray" stroke-width="1" transform="translate(103.75,580)"></path><path d="M62.89509494984486,36.312499999999986L-62.895094949844854,-36.31250000000001" fill="none" stroke="gray" stroke-width="1" transform="translate(311.25,580)"></path><path d="M62.89509494984486,36.312499999999986L-62.895094949844854,-36.31250000000001" fill="none" stroke="gray" stroke-width="1" transform="translate(518.75,580)"></path><path d="M62.89509494984486,36.312499999999986L-62.895094949844854,-36.31250000000001" fill="none" stroke="gray" stroke-width="1" transform="translate(726.25,580)"></path><path d="M62.89509494984486,36.312499999999986L-62.895094949844854,-36.31250000000001" fill="none" stroke="gray" stroke-width="1" transform="translate(103.75,812)"></path><path d="M62.89509494984486,36.312499999999986L-62.895094949844854,-36.31250000000001" fill="none" stroke="gray" stroke-width="1" transform="translate(311.25,812)"></path><path d="M62.89509494984486,36.312499999999986L-62.895094949844854,-36.31250000000001" fill="none" stroke="gray" stroke-width="1" transform="translate(518.75,812)"></path><path d="M62.89509494984486,36.312499999999986L-62.895094949844854,-36.31250000000001" fill="none" stroke="gray" stroke-width="1" transform="translate(726.25,812)"></path><path d="M62.89509494984486,36.312499999999986L-62.895094949844854,-36.31250000000001" fill="none" stroke="gray" stroke-width="1" transform="translate(103.75,1044)"></path><path d="M62.89509494984486,36.312499999999986L-62.895094949844854,-36.31250000000001" fill="none" stroke="gray" stroke-width="1" transform="translate(311.25,1044)"></path><circle cx="103.75" cy="116" r="2" fill="black"></circle><circle cx="311.25" cy="116" r="2" fill="black"></circle><circle cx="518.75" cy="116" r="2" fill="black"></circle><circle cx="726.25" cy="116" r="2" fill="black"></circle><circle cx="103.75" cy="348" r="2" fill="black"></circle><circle cx="311.25" cy="348" r="2" fill="black"></circle><circle cx="518.75" cy="348" r="2" fill="black"></circle><circle cx="726.25" cy="348" r="2" fill="black"></circle><circle cx="103.75" cy="580" r="2" fill="black"></circle><circle cx="311.25" cy="580" r="2" fill="black"></circle><circle cx="518.75" cy="580" r="2" fill="black"></circle><circle cx="726.25" cy="580" r="2" fill="black"></circle><circle cx="103.75" cy="812" r="2" fill="black"></circle><circle cx="311.25" cy="812" r="2" fill="black"></circle><circle cx="518.75" cy="812" r="2" fill="black"></circle><circle cx="726.25" cy="812" r="2" fill="black"></circle><circle cx="103.75" cy="1044" r="2" fill="black"></circle><circle cx="311.25" cy="1044" r="2" fill="black"></circle><path d="M2.2032572086209e-15,-35.98192083064102L36.335719584495116,-20.97843748330701L51.83186253486426,29.925139787103543L3.4477770507472405e-15,56.3064722522072L-34.72361536240662,20.047688676722505L-42.274768878895344,-24.40734919215945Z" fill="#41b6c4" fill-opacity="0.8" transform="translate(103.75,116)"></path><path d="M9.934102643665611e-16,-16.2236208032914L59.31170229517754,-34.2436272862157L61.59395628852981,35.56128724363671L4.150281071745332e-15,67.77923356570922L-59.171590202520896,34.16273353180369L-61.63178363997246,-35.583126875174884Z" fill="#41b6c4" fill-opacity="0.8" transform="translate(311.25,116)"></path><path d="M2.266057011491363e-15,-37.00751944265204L54.28884001856999,-31.343676398713914L57.13396296514033,32.98630889779386L3.9087261986587974e-15,63.83434311640229L-54.25337145699496,31.32319861514083L-59.00055792191239,-34.06398799855423Z" fill="#41b6c4" fill-opacity="0.8" transform="translate(518.75,116)"></path><path d="M3.1303071840495483e-15,-51.12179587174016L43.47311903091432,-25.099216975011025L44.9473233164959,25.95034921613204L3.1961639181632908e-15,52.197317959571436L-44.02913030597653,25.420230234340682L-46.7000025551236,-26.96225904635683Z" fill="#41b6c4" fill-opacity="0.8" transform="translate(726.25,116)"></path><path d="M3.685122915867975e-15,-60.18262438498513L16.715274255906905,-9.650568091226274L17.210036803258674,9.936219381124758L1.0759385193314774e-15,17.57140948852498L-15.623400402236069,9.020174427888309L-15.901846087119544,-9.180935119010469Z" fill="#41b6c4" fill-opacity="0.8" transform="translate(103.75,348)"></path><path d="M3.854398900987322e-15,-62.94711101471713L12.57901898996897,-7.2625L12.579018989968972,7.2624999999999975L8.893997378807653e-16,14.525L-12.579018989968969,7.262500000000005L-12.57901898996897,-7.262500000000002Z" fill="#41b6c4" fill-opacity="0.8" transform="translate(311.25,348)"></path><path d="M4.090811511237665e-15,-66.80802193882917L15.966799430382626,-9.218435949228173L23.084667641742783,13.327939077113234L1.6804349654013583e-15,27.443585637448162L-15.9706853350564,9.220679477337628L-17.240011099445837,-9.953525049097193Z" fill="#41b6c4" fill-opacity="0.8" transform="translate(518.75,348)"></path><path d="M2.5514407457764637e-15,-41.668189514770724L45.34336322960016,-26.179002966572632L49.76113432938522,28.729604300251673L3.2349569014676585e-15,52.83085545513958L-43.92878912401975,25.36229822592713L-44.84387139151456,-25.890621219395896Z" fill="#41b6c4" fill-opacity="0.8" transform="translate(726.25,348)"></path><path d="M3.0593084568688922e-15,-49.962298664380654L53.11194159751383,-30.66419377850829L52.91319185839829,30.549445563128558L3.704693240039979e-15,60.502232033257755L-53.91434811054585,31.127463394806867L-51.22395100822792,-29.5741619035566Z" fill="#41b6c4" fill-opacity="0.8" transform="translate(103.75,580)"></path><path d="M3.0759043661888005e-15,-50.233330431767996L46.73972203236989,-26.985191097237042L50.54745517068696,29.183586849646645L3.618832083708087e-15,59.100012938059514L-46.92943897206613,27.09472422344052L-46.68875633307394,-26.955766037029093Z" fill="#41b6c4" fill-opacity="0.8" transform="translate(311.25,580)"></path><path d="M3.3807952069422743e-15,-55.21257572870995L45.85753216129241,-26.475858537694098L43.09318644556887,24.87986279458791L2.9105629454565232e-15,47.5331001147918L-44.82232034045772,25.878178714266927L-41.95624608244556,-24.223449969886133Z" fill="#41b6c4" fill-opacity="0.8" transform="translate(518.75,580)"></path><path d="M4.446998689403826e-15,-72.625L23.839258150593245,-13.76360211052599L24.861339470078114,14.353701035464262L1.7325690623019906e-15,28.295000052395068L-22.858665193207585,13.19745650261394L-25.8296509047544,-14.912755902934016Z" fill="#41b6c4" fill-opacity="0.8" transform="translate(726.25,580)"></path><path d="M8.893997378807653e-16,-14.525L62.895094949844854,-36.3125L62.89509494984486,36.312499999999986L4.446998689403826e-15,72.625L-62.89509494984485,36.31250000000002L-62.895094949844854,-36.31250000000001Z" fill="#41b6c4" fill-opacity="0.8" transform="translate(103.75,812)"></path><path d="M1.7918246498105124e-15,-29.262717235010953L58.323081949821045,-33.67284706369779L59.8969825439788,34.58153899541246L4.187883999976715e-15,68.39333598703696L-59.2660569798378,34.21727395111708L-58.0144233209455,-33.494642921228795Z" fill="#41b6c4" fill-opacity="0.8" transform="translate(311.25,812)"></path><path d="M1.347687211513842e-15,-22.009402424472988L60.812579479435236,-35.110159132567446L58.71185195203682,33.89730352912989L4.213907140027959e-15,68.81832611593556L-61.40982344475759,35.454978096718214L-58.38513402085183,-33.70867284361119Z" fill="#41b6c4" fill-opacity="0.8" transform="translate(518.75,812)"></path><path d="M1.987383415584451e-15,-32.45643424648061L43.540313433262305,-25.13801168129467L58.630937311543775,33.850587439659854L3.429607537742709e-15,56.0097415863992L-28.84044842978074,16.651040664483443L-33.529717358119825,-19.358391342562552Z" fill="#41b6c4" fill-opacity="0.8" transform="translate(726.25,812)"></path><path d="M8.99653141516983e-16,-14.692450788967998L43.540313433262305,-25.13801168129467L12.579018989968972,7.2624999999999975L8.893997378807653e-16,14.525L-19.914264118210465,11.497505749362126L-36.20727021809374,-20.904277207037946Z" fill="#41b6c4" fill-opacity="0.8" transform="translate(103.75,1044)"></path><path d="M1.2759120413516403e-15,-20.837224940937745L50.59572567980173,-29.211455841077992L12.579018989968972,7.2624999999999975L8.893997378807653e-16,14.525L-47.68461530976245,27.53072548529512L-36.711616933899066,-21.195461919173056Z" fill="#41b6c4" fill-opacity="0.8" transform="translate(311.25,1044)"></path><text text-anchor="middle" transform="translate(103.75,15.5625)">QB</text><text text-anchor="middle" transform="translate(311.25,15.5625)">WR</text><text text-anchor="middle" transform="translate(518.75,15.5625)">RB</text><text text-anchor="middle" transform="translate(726.25,15.5625)">FB</text><text text-anchor="middle" transform="translate(103.75,247.5625)">OT</text><text text-anchor="middle" transform="translate(311.25,247.5625)">OG</text><text text-anchor="middle" transform="translate(518.75,247.5625)">C</text><text text-anchor="middle" transform="translate(726.25,247.5625)">TE</text><text text-anchor="middle" transform="translate(103.75,479.5625)">OLB</text><text text-anchor="middle" transform="translate(311.25,479.5625)">ILB</text><text text-anchor="middle" transform="translate(518.75,479.5625)">DE</text><text text-anchor="middle" transform="translate(726.25,479.5625)">DT</text><text text-anchor="middle" transform="translate(103.75,711.5625)">CB</text><text text-anchor="middle" transform="translate(311.25,711.5625)">SS</text><text text-anchor="middle" transform="translate(518.75,711.5625)">FS</text><text text-anchor="middle" transform="translate(726.25,711.5625)">LS</text><text text-anchor="middle" transform="translate(103.75,943.5625)">P</text><text text-anchor="middle" transform="translate(311.25,943.5625)">K</text><text text-anchor="middle" x="4.802758584556133e-15" y="-78.435" class="statLabel" transform="translate(103.75,116)">Bench</text><text text-anchor="middle" x="4.802758584556133e-15" y="-78.435" class="statLabel" transform="translate(311.25,116)">Bench</text><text text-anchor="middle" x="4.802758584556133e-15" y="-78.435" class="statLabel" transform="translate(518.75,116)">Bench</text><text text-anchor="middle" x="4.802758584556133e-15" y="-78.435" class="statLabel" transform="translate(726.25,116)">Bench</text><text text-anchor="middle" x="4.802758584556133e-15" y="-78.435" class="statLabel" transform="translate(103.75,348)">Bench</text><text text-anchor="middle" x="4.802758584556133e-15" y="-78.435" class="statLabel" transform="translate(311.25,348)">Bench</text><text text-anchor="middle" x="4.802758584556133e-15" y="-78.435" class="statLabel" transform="translate(518.75,348)">Bench</text><text text-anchor="middle" x="4.802758584556133e-15" y="-78.435" class="statLabel" transform="translate(726.25,348)">Bench</text><text text-anchor="middle" x="4.802758584556133e-15" y="-78.435" class="statLabel" transform="translate(103.75,580)">Bench</text><text text-anchor="middle" x="4.802758584556133e-15" y="-78.435" class="statLabel" transform="translate(311.25,580)">Bench</text><text text-anchor="middle" x="4.802758584556133e-15" y="-78.435" class="statLabel" transform="translate(518.75,580)">Bench</text><text text-anchor="middle" x="4.802758584556133e-15" y="-78.435" class="statLabel" transform="translate(726.25,580)">Bench</text><text text-anchor="middle" x="4.802758584556133e-15" y="-78.435" class="statLabel" transform="translate(103.75,812)">Bench</text><text text-anchor="middle" x="4.802758584556133e-15" y="-78.435" class="statLabel" transform="translate(311.25,812)">Bench</text><text text-anchor="middle" x="4.802758584556133e-15" y="-78.435" class="statLabel" transform="translate(518.75,812)">Bench</text><text text-anchor="middle" x="4.802758584556133e-15" y="-78.435" class="statLabel" transform="translate(726.25,812)">Bench</text><text text-anchor="middle" x="4.802758584556133e-15" y="-78.435" class="statLabel" transform="translate(103.75,1044)">Bench</text><text text-anchor="middle" x="4.802758584556133e-15" y="-78.435" class="statLabel" transform="translate(311.25,1044)">Bench</text><text text-anchor="start" alignment-baseline="central" x="67.92670254583244" y="-39.2175" class="statLabel" transform="translate(103.75,116)">Broad</text><text text-anchor="start" alignment-baseline="central" x="67.92670254583244" y="-39.2175" class="statLabel" transform="translate(311.25,116)">Broad</text><text text-anchor="start" alignment-baseline="central" x="67.92670254583244" y="-39.2175" class="statLabel" transform="translate(518.75,116)">Broad</text><text text-anchor="start" alignment-baseline="central" x="67.92670254583244" y="-39.2175" class="statLabel" transform="translate(726.25,116)">Broad</text><text text-anchor="start" alignment-baseline="central" x="67.92670254583244" y="-39.2175" class="statLabel" transform="translate(103.75,348)">Broad</text><text text-anchor="start" alignment-baseline="central" x="67.92670254583244" y="-39.2175" class="statLabel" transform="translate(311.25,348)">Broad</text><text text-anchor="start" alignment-baseline="central" x="67.92670254583244" y="-39.2175" class="statLabel" transform="translate(518.75,348)">Broad</text><text text-anchor="start" alignment-baseline="central" x="67.92670254583244" y="-39.2175" class="statLabel" transform="translate(726.25,348)">Broad</text><text text-anchor="start" alignment-baseline="central" x="67.92670254583244" y="-39.2175" class="statLabel" transform="translate(103.75,580)">Broad</text><text text-anchor="start" alignment-baseline="central" x="67.92670254583244" y="-39.2175" class="statLabel" transform="translate(311.25,580)">Broad</text><text text-anchor="start" alignment-baseline="central" x="67.92670254583244" y="-39.2175" class="statLabel" transform="translate(518.75,580)">Broad</text><text text-anchor="start" alignment-baseline="central" x="67.92670254583244" y="-39.2175" class="statLabel" transform="translate(726.25,580)">Broad</text><text text-anchor="start" alignment-baseline="central" x="67.92670254583244" y="-39.2175" class="statLabel" transform="translate(103.75,812)">Broad</text><text text-anchor="start" alignment-baseline="central" x="67.92670254583244" y="-39.2175" class="statLabel" transform="translate(311.25,812)">Broad</text><text text-anchor="start" alignment-baseline="central" x="67.92670254583244" y="-39.2175" class="statLabel" transform="translate(518.75,812)">Broad</text><text text-anchor="start" alignment-baseline="central" x="67.92670254583244" y="-39.2175" class="statLabel" transform="translate(726.25,812)">Broad</text><text text-anchor="start" alignment-baseline="central" x="67.92670254583244" y="-39.2175" class="statLabel" transform="translate(103.75,1044)">Broad</text><text text-anchor="start" alignment-baseline="central" x="67.92670254583244" y="-39.2175" class="statLabel" transform="translate(311.25,1044)">Broad</text><text text-anchor="start" alignment-baseline="central" x="67.92670254583246" y="39.21749999999999" class="statLabel" transform="translate(103.75,116)">Cone3</text><text text-anchor="start" alignment-baseline="central" x="67.92670254583246" y="39.21749999999999" class="statLabel" transform="translate(311.25,116)">Cone3</text><text text-anchor="start" alignment-baseline="central" x="67.92670254583246" y="39.21749999999999" class="statLabel" transform="translate(518.75,116)">Cone3</text><text text-anchor="start" alignment-baseline="central" x="67.92670254583246" y="39.21749999999999" class="statLabel" transform="translate(726.25,116)">Cone3</text><text text-anchor="start" alignment-baseline="central" x="67.92670254583246" y="39.21749999999999" class="statLabel" transform="translate(103.75,348)">Cone3</text><text text-anchor="start" alignment-baseline="central" x="67.92670254583246" y="39.21749999999999" class="statLabel" transform="translate(311.25,348)">Cone3</text><text text-anchor="start" alignment-baseline="central" x="67.92670254583246" y="39.21749999999999" class="statLabel" transform="translate(518.75,348)">Cone3</text><text text-anchor="start" alignment-baseline="central" x="67.92670254583246" y="39.21749999999999" class="statLabel" transform="translate(726.25,348)">Cone3</text><text text-anchor="start" alignment-baseline="central" x="67.92670254583246" y="39.21749999999999" class="statLabel" transform="translate(103.75,580)">Cone3</text><text text-anchor="start" alignment-baseline="central" x="67.92670254583246" y="39.21749999999999" class="statLabel" transform="translate(311.25,580)">Cone3</text><text text-anchor="start" alignment-baseline="central" x="67.92670254583246" y="39.21749999999999" class="statLabel" transform="translate(518.75,580)">Cone3</text><text text-anchor="start" alignment-baseline="central" x="67.92670254583246" y="39.21749999999999" class="statLabel" transform="translate(726.25,580)">Cone3</text><text text-anchor="start" alignment-baseline="central" x="67.92670254583246" y="39.21749999999999" class="statLabel" transform="translate(103.75,812)">Cone3</text><text text-anchor="start" alignment-baseline="central" x="67.92670254583246" y="39.21749999999999" class="statLabel" transform="translate(311.25,812)">Cone3</text><text text-anchor="start" alignment-baseline="central" x="67.92670254583246" y="39.21749999999999" class="statLabel" transform="translate(518.75,812)">Cone3</text><text text-anchor="start" alignment-baseline="central" x="67.92670254583246" y="39.21749999999999" class="statLabel" transform="translate(726.25,812)">Cone3</text><text text-anchor="start" alignment-baseline="central" x="67.92670254583246" y="39.21749999999999" class="statLabel" transform="translate(103.75,1044)">Cone3</text><text text-anchor="start" alignment-baseline="central" x="67.92670254583246" y="39.21749999999999" class="statLabel" transform="translate(311.25,1044)">Cone3</text><text text-anchor="middle" alignment-baseline="hanging" x="4.802758584556133e-15" y="78.435" class="statLabel" transform="translate(103.75,116)">Shuttle</text><text text-anchor="middle" alignment-baseline="hanging" x="4.802758584556133e-15" y="78.435" class="statLabel" transform="translate(311.25,116)">Shuttle</text><text text-anchor="middle" alignment-baseline="hanging" x="4.802758584556133e-15" y="78.435" class="statLabel" transform="translate(518.75,116)">Shuttle</text><text text-anchor="middle" alignment-baseline="hanging" x="4.802758584556133e-15" y="78.435" class="statLabel" transform="translate(726.25,116)">Shuttle</text><text text-anchor="middle" alignment-baseline="hanging" x="4.802758584556133e-15" y="78.435" class="statLabel" transform="translate(103.75,348)">Shuttle</text><text text-anchor="middle" alignment-baseline="hanging" x="4.802758584556133e-15" y="78.435" class="statLabel" transform="translate(311.25,348)">Shuttle</text><text text-anchor="middle" alignment-baseline="hanging" x="4.802758584556133e-15" y="78.435" class="statLabel" transform="translate(518.75,348)">Shuttle</text><text text-anchor="middle" alignment-baseline="hanging" x="4.802758584556133e-15" y="78.435" class="statLabel" transform="translate(726.25,348)">Shuttle</text><text text-anchor="middle" alignment-baseline="hanging" x="4.802758584556133e-15" y="78.435" class="statLabel" transform="translate(103.75,580)">Shuttle</text><text text-anchor="middle" alignment-baseline="hanging" x="4.802758584556133e-15" y="78.435" class="statLabel" transform="translate(311.25,580)">Shuttle</text><text text-anchor="middle" alignment-baseline="hanging" x="4.802758584556133e-15" y="78.435" class="statLabel" transform="translate(518.75,580)">Shuttle</text><text text-anchor="middle" alignment-baseline="hanging" x="4.802758584556133e-15" y="78.435" class="statLabel" transform="translate(726.25,580)">Shuttle</text><text text-anchor="middle" alignment-baseline="hanging" x="4.802758584556133e-15" y="78.435" class="statLabel" transform="translate(103.75,812)">Shuttle</text><text text-anchor="middle" alignment-baseline="hanging" x="4.802758584556133e-15" y="78.435" class="statLabel" transform="translate(311.25,812)">Shuttle</text><text text-anchor="middle" alignment-baseline="hanging" x="4.802758584556133e-15" y="78.435" class="statLabel" transform="translate(518.75,812)">Shuttle</text><text text-anchor="middle" alignment-baseline="hanging" x="4.802758584556133e-15" y="78.435" class="statLabel" transform="translate(726.25,812)">Shuttle</text><text text-anchor="middle" alignment-baseline="hanging" x="4.802758584556133e-15" y="78.435" class="statLabel" transform="translate(103.75,1044)">Shuttle</text><text text-anchor="middle" alignment-baseline="hanging" x="4.802758584556133e-15" y="78.435" class="statLabel" transform="translate(311.25,1044)">Shuttle</text><text text-anchor="end" alignment-baseline="central" x="-67.92670254583244" y="39.21750000000003" class="statLabel" transform="translate(103.75,116)">Vert</text><text text-anchor="end" alignment-baseline="central" x="-67.92670254583244" y="39.21750000000003" class="statLabel" transform="translate(311.25,116)">Vert</text><text text-anchor="end" alignment-baseline="central" x="-67.92670254583244" y="39.21750000000003" class="statLabel" transform="translate(518.75,116)">Vert</text><text text-anchor="end" alignment-baseline="central" x="-67.92670254583244" y="39.21750000000003" class="statLabel" transform="translate(726.25,116)">Vert</text><text text-anchor="end" alignment-baseline="central" x="-67.92670254583244" y="39.21750000000003" class="statLabel" transform="translate(103.75,348)">Vert</text><text text-anchor="end" alignment-baseline="central" x="-67.92670254583244" y="39.21750000000003" class="statLabel" transform="translate(311.25,348)">Vert</text><text text-anchor="end" alignment-baseline="central" x="-67.92670254583244" y="39.21750000000003" class="statLabel" transform="translate(518.75,348)">Vert</text><text text-anchor="end" alignment-baseline="central" x="-67.92670254583244" y="39.21750000000003" class="statLabel" transform="translate(726.25,348)">Vert</text><text text-anchor="end" alignment-baseline="central" x="-67.92670254583244" y="39.21750000000003" class="statLabel" transform="translate(103.75,580)">Vert</text><text text-anchor="end" alignment-baseline="central" x="-67.92670254583244" y="39.21750000000003" class="statLabel" transform="translate(311.25,580)">Vert</text><text text-anchor="end" alignment-baseline="central" x="-67.92670254583244" y="39.21750000000003" class="statLabel" transform="translate(518.75,580)">Vert</text><text text-anchor="end" alignment-baseline="central" x="-67.92670254583244" y="39.21750000000003" class="statLabel" transform="translate(726.25,580)">Vert</text><text text-anchor="end" alignment-baseline="central" x="-67.92670254583244" y="39.21750000000003" class="statLabel" transform="translate(103.75,812)">Vert</text><text text-anchor="end" alignment-baseline="central" x="-67.92670254583244" y="39.21750000000003" class="statLabel" transform="translate(311.25,812)">Vert</text><text text-anchor="end" alignment-baseline="central" x="-67.92670254583244" y="39.21750000000003" class="statLabel" transform="translate(518.75,812)">Vert</text><text text-anchor="end" alignment-baseline="central" x="-67.92670254583244" y="39.21750000000003" class="statLabel" transform="translate(726.25,812)">Vert</text><text text-anchor="end" alignment-baseline="central" x="-67.92670254583244" y="39.21750000000003" class="statLabel" transform="translate(103.75,1044)">Vert</text><text text-anchor="end" alignment-baseline="central" x="-67.92670254583244" y="39.21750000000003" class="statLabel" transform="translate(311.25,1044)">Vert</text><text text-anchor="end" alignment-baseline="central" x="-67.92670254583244" y="-39.21750000000001" class="statLabel" transform="translate(103.75,116)">Yd40</text><text text-anchor="end" alignment-baseline="central" x="-67.92670254583244" y="-39.21750000000001" class="statLabel" transform="translate(311.25,116)">Yd40</text><text text-anchor="end" alignment-baseline="central" x="-67.92670254583244" y="-39.21750000000001" class="statLabel" transform="translate(518.75,116)">Yd40</text><text text-anchor="end" alignment-baseline="central" x="-67.92670254583244" y="-39.21750000000001" class="statLabel" transform="translate(726.25,116)">Yd40</text><text text-anchor="end" alignment-baseline="central" x="-67.92670254583244" y="-39.21750000000001" class="statLabel" transform="translate(103.75,348)">Yd40</text><text text-anchor="end" alignment-baseline="central" x="-67.92670254583244" y="-39.21750000000001" class="statLabel" transform="translate(311.25,348)">Yd40</text><text text-anchor="end" alignment-baseline="central" x="-67.92670254583244" y="-39.21750000000001" class="statLabel" transform="translate(518.75,348)">Yd40</text><text text-anchor="end" alignment-baseline="central" x="-67.92670254583244" y="-39.21750000000001" class="statLabel" transform="translate(726.25,348)">Yd40</text><text text-anchor="end" alignment-baseline="central" x="-67.92670254583244" y="-39.21750000000001" class="statLabel" transform="translate(103.75,580)">Yd40</text><text text-anchor="end" alignment-baseline="central" x="-67.92670254583244" y="-39.21750000000001" class="statLabel" transform="translate(311.25,580)">Yd40</text><text text-anchor="end" alignment-baseline="central" x="-67.92670254583244" y="-39.21750000000001" class="statLabel" transform="translate(518.75,580)">Yd40</text><text text-anchor="end" alignment-baseline="central" x="-67.92670254583244" y="-39.21750000000001" class="statLabel" transform="translate(726.25,580)">Yd40</text><text text-anchor="end" alignment-baseline="central" x="-67.92670254583244" y="-39.21750000000001" class="statLabel" transform="translate(103.75,812)">Yd40</text><text text-anchor="end" alignment-baseline="central" x="-67.92670254583244" y="-39.21750000000001" class="statLabel" transform="translate(311.25,812)">Yd40</text><text text-anchor="end" alignment-baseline="central" x="-67.92670254583244" y="-39.21750000000001" class="statLabel" transform="translate(518.75,812)">Yd40</text><text text-anchor="end" alignment-baseline="central" x="-67.92670254583244" y="-39.21750000000001" class="statLabel" transform="translate(726.25,812)">Yd40</text><text text-anchor="end" alignment-baseline="central" x="-67.92670254583244" y="-39.21750000000001" class="statLabel" transform="translate(103.75,1044)">Yd40</text><text text-anchor="end" alignment-baseline="central" x="-67.92670254583244" y="-39.21750000000001" class="statLabel" transform="translate(311.25,1044)">Yd40</text></g></svg>