<?xml version="1.0" encoding="utf-8"?>
<!-- Generator: Adobe Illustrator 19.2.1, SVG Export Plug-In . SVG Version: 6.00 Build 0)  -->
<svg version="1.1" id="Layer_1" xmlns="http://www.w3.org/2000/svg" xmlns:xlink="http://www.w3.org/1999/xlink" x="0px" y="0px"
	 viewBox="0 0 850 1200" style="enable-background:new 0 0 850 1200;" xml:space="preserve">
<style type="text/css">
	.st0{fill:#808080;fill-opacity:0.1;stroke:#808080;stroke-width:2;}
	.st1{fill:none;stroke:#808080;}
	.st2{fill:#41B6C4;fill-opacity:0.8;}
	.st3{fill:#808080;}
	.st4{font-family:'Consolas';}
	.st5{font-size:11px;}
	.st6{font-size:7px;}
</style>
<defs  xmlns="http://www.w3.org/1999/xhtml">
	<style  type="text/css">
		<![CDATA[
rect.bordered { stroke: white; stroke-width: 0.5px; }
text { font-size: 11pt; font-family: Consolas, courier; fill: gray; }
text.statLabel { font-size: 7pt; font-family: Consolas, courier; fill: gray; }
h1 { font-family: sans-serif; color: gray; margin-left: 20pt; margin-right: 20pt; }
p { font-family: sans-serif; margin-left: 20pt; margin-right: 100pt; color: gray; max-width: 650px; }
a { color: rgb(65, 182, 196); text-decoration: none; }
div#chart { float: left; }
div#area { display: inline-block; }
			]]>
	</style>
</defs>
<g transform="translate(10,20)">
	<path class="st0" d="M103.8,43.4l62.9,36.3v72.6l-62.9,36.3l-62.9-36.3V79.7L103.8,43.4z"/>
	<path class="st0" d="M311.2,43.4l62.9,36.3v72.6l-62.9,36.3l-62.9-36.3V79.7L311.2,43.4z"/>
	<path class="st0" d="M518.8,43.4l62.9,36.3v72.6l-62.9,36.3l-62.9-36.3V79.7L518.8,43.4z"/>
	<path class="st0" d="M726.2,43.4l62.9,36.3v72.6l-62.9,36.3l-62.9-36.3V79.7L726.2,43.4z"/>
	<path class="st0" d="M103.8,275.4l62.9,36.3v72.6l-62.9,36.3l-62.9-36.3v-72.6L103.8,275.4z"/>
	<path class="st0" d="M311.2,275.4l62.9,36.3v72.6l-62.9,36.3l-62.9-36.3v-72.6L311.2,275.4z"/>
	<path class="st0" d="M518.8,275.4l62.9,36.3v72.6l-62.9,36.3l-62.9-36.3v-72.6L518.8,275.4z"/>
	<path class="st0" d="M726.2,275.4l62.9,36.3v72.6l-62.9,36.3l-62.9-36.3v-72.6L726.2,275.4z"/>
	<path class="st0" d="M103.8,507.4l62.9,36.3v72.6l-62.9,36.3l-62.9-36.3v-72.6L103.8,507.4z"/>
	<path class="st0" d="M311.2,507.4l62.9,36.3v72.6l-62.9,36.3l-62.9-36.3v-72.6L311.2,507.4z"/>
	<path class="st0" d="M518.8,507.4l62.9,36.3v72.6l-62.9,36.3l-62.9-36.3v-72.6L518.8,507.4z"/>
	<path class="st0" d="M726.2,507.4l62.9,36.3v72.6l-62.9,36.3l-62.9-36.3v-72.6L726.2,507.4z"/>
	<path class="st0" d="M103.8,739.4l62.9,36.3v72.6l-62.9,36.3l-62.9-36.3v-72.6L103.8,739.4z"/>
	<path class="st0" d="M311.2,739.4l62.9,36.3v72.6l-62.9,36.3l-62.9-36.3v-72.6L311.2,739.4z"/>
	<path class="st0" d="M518.8,739.4l62.9,36.3v72.6l-62.9,36.3l-62.9-36.3v-72.6L518.8,739.4z"/>
	<path class="st0" d="M726.2,739.4l62.9,36.3v72.6l-62.9,36.3l-62.9-36.3v-72.6L726.2,739.4z"/>
	<path class="st0" d="M103.8,971.4l62.9,36.3v72.6l-62.9,36.3l-62.9-36.3v-72.6L103.8,971.4z"/>
	<path class="st0" d="M311.2,971.4l62.9,36.3v72.6l-62.9,36.3l-62.9-36.3v-72.6L311.2,971.4z"/>
	<path class="st1" d="M103.8,43.4v145.2"/>
	<path class="st1" d="M311.2,43.4v145.2"/>
	<path class="st1" d="M518.8,43.4v145.2"/>
	<path class="st1" d="M726.2,43.4v145.2"/>
	<path class="st1" d="M103.8,275.4v145.2"/>
	<path class="st1" d="M311.2,275.4v145.2"/>
	<path class="st1" d="M518.8,275.4v145.2"/>
	<path class="st1" d="M726.2,275.4v145.2"/>
	<path class="st1" d="M103.8,507.4v145.2"/>
	<path class="st1" d="M311.2,507.4v145.2"/>
	<path class="st1" d="M518.8,507.4v145.2"/>
	<path class="st1" d="M726.2,507.4v145.2"/>
	<path class="st1" d="M103.8,739.4v145.2"/>
	<path class="st1" d="M311.2,739.4v145.2"/>
	<path class="st1" d="M518.8,739.4v145.2"/>
	<path class="st1" d="M726.2,739.4v145.2"/>
	<path class="st1" d="M103.8,971.4v145.2"/>
	<path class="st1" d="M311.2,971.4v145.2"/>
	<path class="st1" d="M166.6,79.7L40.9,152.3"/>
	<path class="st1" d="M374.1,79.7l-125.8,72.6"/>
	<path class="st1" d="M581.6,79.7l-125.8,72.6"/>
	<path class="st1" d="M789.1,79.7l-125.8,72.6"/>
	<path class="st1" d="M166.6,311.7L40.9,384.3"/>
	<path class="st1" d="M374.1,311.7l-125.8,72.6"/>
	<path class="st1" d="M581.6,311.7l-125.8,72.6"/>
	<path class="st1" d="M789.1,311.7l-125.8,72.6"/>
	<path class="st1" d="M166.6,543.7L40.9,616.3"/>
	<path class="st1" d="M374.1,543.7l-125.8,72.6"/>
	<path class="st1" d="M581.6,543.7l-125.8,72.6"/>
	<path class="st1" d="M789.1,543.7l-125.8,72.6"/>
	<path class="st1" d="M166.6,775.7L40.9,848.3"/>
	<path class="st1" d="M374.1,775.7l-125.8,72.6"/>
	<path class="st1" d="M581.6,775.7l-125.8,72.6"/>
	<path class="st1" d="M789.1,775.7l-125.8,72.6"/>
	<path class="st1" d="M166.6,1007.7l-125.8,72.6"/>
	<path class="st1" d="M374.1,1007.7l-125.8,72.6"/>
	<path class="st1" d="M166.6,152.3L40.9,79.7"/>
	<path class="st1" d="M374.1,152.3L248.4,79.7"/>
	<path class="st1" d="M581.6,152.3L455.9,79.7"/>
	<path class="st1" d="M789.1,152.3L663.4,79.7"/>
	<path class="st1" d="M166.6,384.3L40.9,311.7"/>
	<path class="st1" d="M374.1,384.3l-125.8-72.6"/>
	<path class="st1" d="M581.6,384.3l-125.8-72.6"/>
	<path class="st1" d="M789.1,384.3l-125.8-72.6"/>
	<path class="st1" d="M166.6,616.3L40.9,543.7"/>
	<path class="st1" d="M374.1,616.3l-125.8-72.6"/>
	<path class="st1" d="M581.6,616.3l-125.8-72.6"/>
	<path class="st1" d="M789.1,616.3l-125.8-72.6"/>
	<path class="st1" d="M166.6,848.3L40.9,775.7"/>
	<path class="st1" d="M374.1,848.3l-125.8-72.6"/>
	<path class="st1" d="M581.6,848.3l-125.8-72.6"/>
	<path class="st1" d="M789.1,848.3l-125.8-72.6"/>
	<path class="st1" d="M166.6,1080.3l-125.8-72.6"/>
	<path class="st1" d="M374.1,1080.3l-125.8-72.6"/>
	<circle cx="103.8" cy="116" r="2"/>
	<circle cx="311.2" cy="116" r="2"/>
	<circle cx="518.8" cy="116" r="2"/>
	<circle cx="726.2" cy="116" r="2"/>
	<circle cx="103.8" cy="348" r="2"/>
	<circle cx="311.2" cy="348" r="2"/>
	<circle cx="518.8" cy="348" r="2"/>
	<circle cx="726.2" cy="348" r="2"/>
	<circle cx="103.8" cy="580" r="2"/>
	<circle cx="311.2" cy="580" r="2"/>
	<circle cx="518.8" cy="580" r="2"/>
	<circle cx="726.2" cy="580" r="2"/>
	<circle cx="103.8" cy="812" r="2"/>
	<circle cx="311.2" cy="812" r="2"/>
	<circle cx="518.8" cy="812" r="2"/>
	<circle cx="726.2" cy="812" r="2"/>
	<circle cx="103.8" cy="1044" r="2"/>
	<circle cx="311.2" cy="1044" r="2"/>
	<path class="st2" d="M103.8,80l36.3,15l15.5,50.9l-51.8,26.4L69,136l-7.6-44.5L103.8,80z"/>
	<path class="st2" d="M311.2,99.8l59.3-18l2.3,69.8l-61.6,32.2l-59.2-33.6l-2.5-69.7L311.2,99.8z"/>
	<path class="st2" d="M518.8,79l54.3,5.7l2.8,64.3l-57.1,30.8l-54.3-32.5l-4.7-65.4L518.8,79z"/>
	<path class="st2" d="M726.2,64.9l43.5,26l1.5,51l-44.9,26.2l-44-26.8L679.5,89L726.2,64.9z"/>
	<path class="st2" d="M103.8,287.8l16.7,50.5l0.5,19.6l-17.2,7.6L88.1,357l-0.3-18.2L103.8,287.8z"/>
	<path class="st2" d="M311.2,285.1l12.6,55.7v14.5l-12.6,7.3l-12.6-7.3v-14.5L311.2,285.1z"/>
	<path class="st2" d="M518.8,281.2l16,57.6l7.1,22.5l-23.1,14.1l-16-18.2l-1.3-19.2L518.8,281.2z"/>
	<path class="st2" d="M726.2,306.3l45.3,15.5l4.4,54.9l-49.8,24.1l-43.9-27.5l-0.9-51.3L726.2,306.3z"/>
	<path class="st2" d="M103.8,530l53.1,19.3l-0.2,61.2l-52.9,30l-53.9-29.4l2.7-60.7L103.8,530z"/>
	<path class="st2" d="M311.2,529.8L358,553l3.8,56.2l-50.5,29.9l-46.9-32l0.2-54.1L311.2,529.8z"/>
	<path class="st2" d="M518.8,524.8l45.9,28.7l-2.8,51.4l-43.1,22.7l-44.8-21.7l2.9-50.1L518.8,524.8z"/>
	<path class="st2" d="M726.2,507.4l23.8,58.9l1,28.1l-24.9,13.9l-22.9-15.1l-3-28.1L726.2,507.4z"/>
	<path class="st2" d="M103.8,797.5l62.9-21.8v72.6l-62.9,36.3l-62.9-36.3v-72.6L103.8,797.5z"/>
	<path class="st2" d="M311.2,782.7l58.3-4.4l1.6,68.3l-59.9,33.8L252,846.2l1.3-67.7L311.2,782.7z"/>
	<path class="st2" d="M518.8,790l60.8-13.1l-2.1,69l-58.7,34.9l-61.4-33.4l3-69.2L518.8,790z"/>
	<path class="st2" d="M726.2,779.5l43.5,7.3l15.1,59L726.2,868l-28.8-39.4l-4.7-36L726.2,779.5z"/>
	<path class="st2" d="M103.8,1029.3l43.5-10.4l-31,32.4l-12.6,7.3l-19.9-3l-16.3-32.4L103.8,1029.3z"/>
	<path class="st2" d="M311.2,1023.2l50.6-8.4l-38,36.5l-12.6,7.3l-47.7,13l11-48.7L311.2,1023.2z"/>
	<text transform="matrix(1 0 0 1 97.7021 15.5625)" class="st3 st4 st5">QB</text>
	<text transform="matrix(1 0 0 1 305.2021 15.5625)" class="st3 st4 st5">WR</text>
	<text transform="matrix(1 0 0 1 512.7021 15.5625)" class="st3 st4 st5">RB</text>
	<text transform="matrix(1 0 0 1 720.2021 15.5625)" class="st3 st4 st5">FB</text>
	<text transform="matrix(1 0 0 1 97.7021 247.5625)" class="st3 st4 st5">OT</text>
	<text transform="matrix(1 0 0 1 305.2021 247.5625)" class="st3 st4 st5">OG</text>
	<text transform="matrix(1 0 0 1 515.7261 247.5625)" class="st3 st4 st5">C</text>
	<text transform="matrix(1 0 0 1 720.2021 247.5625)" class="st3 st4 st5">TE</text>
	<text transform="matrix(1 0 0 1 94.6782 479.5625)" class="st3 st4 st5">OLB</text>
	<text transform="matrix(1 0 0 1 302.1782 479.5625)" class="st3 st4 st5">ILB</text>
	<text transform="matrix(1 0 0 1 512.7021 479.5625)" class="st3 st4 st5">DE</text>
	<text transform="matrix(1 0 0 1 720.2021 479.5625)" class="st3 st4 st5">DT</text>
	<text transform="matrix(1 0 0 1 97.7021 711.5625)" class="st3 st4 st5">CB</text>
	<text transform="matrix(1 0 0 1 305.2021 711.5625)" class="st3 st4 st5">SS</text>
	<text transform="matrix(1 0 0 1 512.7021 711.5625)" class="st3 st4 st5">FS</text>
	<text transform="matrix(1 0 0 1 720.2021 711.5625)" class="st3 st4 st5">LS</text>
	<text transform="matrix(1 0 0 1 100.7261 943.5625)" class="st3 st4 st5">P</text>
	<text transform="matrix(1 0 0 1 308.2261 943.5625)" class="st3 st4 st5">K</text>
	<text transform="matrix(1 0 0 1 94.1284 37.565)" class="st3 st4 st6">Bench</text>
	<text transform="matrix(1 0 0 1 301.6284 37.565)" class="st3 st4 st6">Bench</text>
	<text transform="matrix(1 0 0 1 509.1284 37.565)" class="st3 st4 st6">Bench</text>
	<text transform="matrix(1 0 0 1 716.6284 37.565)" class="st3 st4 st6">Bench</text>
	<text transform="matrix(1 0 0 1 94.1284 269.565)" class="st3 st4 st6">Bench</text>
	<text transform="matrix(1 0 0 1 301.6284 269.565)" class="st3 st4 st6">Bench</text>
	<text transform="matrix(1 0 0 1 509.1284 269.565)" class="st3 st4 st6">Bench</text>
	<text transform="matrix(1 0 0 1 716.6284 269.565)" class="st3 st4 st6">Bench</text>
	<text transform="matrix(1 0 0 1 94.1284 501.565)" class="st3 st4 st6">Bench</text>
	<text transform="matrix(1 0 0 1 301.6284 501.565)" class="st3 st4 st6">Bench</text>
	<text transform="matrix(1 0 0 1 509.1284 501.565)" class="st3 st4 st6">Bench</text>
	<text transform="matrix(1 0 0 1 716.6284 501.565)" class="st3 st4 st6">Bench</text>
	<text transform="matrix(1 0 0 1 94.1284 733.565)" class="st3 st4 st6">Bench</text>
	<text transform="matrix(1 0 0 1 301.6284 733.565)" class="st3 st4 st6">Bench</text>
	<text transform="matrix(1 0 0 1 509.1284 733.565)" class="st3 st4 st6">Bench</text>
	<text transform="matrix(1 0 0 1 716.6284 733.565)" class="st3 st4 st6">Bench</text>
	<text transform="matrix(1 0 0 1 94.1284 965.565)" class="st3 st4 st6">Bench</text>
	<text transform="matrix(1 0 0 1 301.6284 965.565)" class="st3 st4 st6">Bench</text>
	<text transform="matrix(1 0 0 1 171.6767 76.7825)" class="st3 st4 st6">Broad</text>
	<text transform="matrix(1 0 0 1 379.1767 76.7825)" class="st3 st4 st6">Broad</text>
	<text transform="matrix(1 0 0 1 586.6767 76.7825)" class="st3 st4 st6">Broad</text>
	<text transform="matrix(1 0 0 1 794.1767 76.7825)" class="st3 st4 st6">Broad</text>
	<text transform="matrix(1 0 0 1 171.6767 308.7825)" class="st3 st4 st6">Broad</text>
	<text transform="matrix(1 0 0 1 379.1767 308.7825)" class="st3 st4 st6">Broad</text>
	<text transform="matrix(1 0 0 1 586.6767 308.7825)" class="st3 st4 st6">Broad</text>
	<text transform="matrix(1 0 0 1 794.1767 308.7825)" class="st3 st4 st6">Broad</text>
	<text transform="matrix(1 0 0 1 171.6767 540.7825)" class="st3 st4 st6">Broad</text>
	<text transform="matrix(1 0 0 1 379.1767 540.7825)" class="st3 st4 st6">Broad</text>
	<text transform="matrix(1 0 0 1 586.6767 540.7825)" class="st3 st4 st6">Broad</text>
	<text transform="matrix(1 0 0 1 794.1767 540.7825)" class="st3 st4 st6">Broad</text>
	<text transform="matrix(1 0 0 1 171.6767 772.7825)" class="st3 st4 st6">Broad</text>
	<text transform="matrix(1 0 0 1 379.1767 772.7825)" class="st3 st4 st6">Broad</text>
	<text transform="matrix(1 0 0 1 586.6767 772.7825)" class="st3 st4 st6">Broad</text>
	<text transform="matrix(1 0 0 1 794.1767 772.7825)" class="st3 st4 st6">Broad</text>
	<text transform="matrix(1 0 0 1 171.6767 1004.7825)" class="st3 st4 st6">Broad</text>
	<text transform="matrix(1 0 0 1 379.1767 1004.7825)" class="st3 st4 st6">Broad</text>
	<text transform="matrix(1 0 0 1 171.6767 155.2175)" class="st3 st4 st6">Cone3</text>
	<text transform="matrix(1 0 0 1 379.1767 155.2175)" class="st3 st4 st6">Cone3</text>
	<text transform="matrix(1 0 0 1 586.6767 155.2175)" class="st3 st4 st6">Cone3</text>
	<text transform="matrix(1 0 0 1 794.1767 155.2175)" class="st3 st4 st6">Cone3</text>
	<text transform="matrix(1 0 0 1 171.6767 387.2175)" class="st3 st4 st6">Cone3</text>
	<text transform="matrix(1 0 0 1 379.1767 387.2175)" class="st3 st4 st6">Cone3</text>
	<text transform="matrix(1 0 0 1 586.6767 387.2175)" class="st3 st4 st6">Cone3</text>
	<text transform="matrix(1 0 0 1 794.1767 387.2175)" class="st3 st4 st6">Cone3</text>
	<text transform="matrix(1 0 0 1 171.6767 619.2175)" class="st3 st4 st6">Cone3</text>
	<text transform="matrix(1 0 0 1 379.1767 619.2175)" class="st3 st4 st6">Cone3</text>
	<text transform="matrix(1 0 0 1 586.6767 619.2175)" class="st3 st4 st6">Cone3</text>
	<text transform="matrix(1 0 0 1 794.1767 619.2175)" class="st3 st4 st6">Cone3</text>
	<text transform="matrix(1 0 0 1 171.6767 851.2175)" class="st3 st4 st6">Cone3</text>
	<text transform="matrix(1 0 0 1 379.1767 851.2175)" class="st3 st4 st6">Cone3</text>
	<text transform="matrix(1 0 0 1 586.6767 851.2175)" class="st3 st4 st6">Cone3</text>
	<text transform="matrix(1 0 0 1 794.1767 851.2175)" class="st3 st4 st6">Cone3</text>
	<text transform="matrix(1 0 0 1 171.6767 1083.2175)" class="st3 st4 st6">Cone3</text>
	<text transform="matrix(1 0 0 1 379.1767 1083.2175)" class="st3 st4 st6">Cone3</text>
	<text transform="matrix(1 0 0 1 90.2798 194.435)" class="st3 st4 st6">Shuttle</text>
	<text transform="matrix(1 0 0 1 297.7798 194.435)" class="st3 st4 st6">Shuttle</text>
	<text transform="matrix(1 0 0 1 505.2798 194.435)" class="st3 st4 st6">Shuttle</text>
	<text transform="matrix(1 0 0 1 712.7798 194.435)" class="st3 st4 st6">Shuttle</text>
	<text transform="matrix(1 0 0 1 90.2798 426.435)" class="st3 st4 st6">Shuttle</text>
	<text transform="matrix(1 0 0 1 297.7798 426.435)" class="st3 st4 st6">Shuttle</text>
	<text transform="matrix(1 0 0 1 505.2798 426.435)" class="st3 st4 st6">Shuttle</text>
	<text transform="matrix(1 0 0 1 712.7798 426.435)" class="st3 st4 st6">Shuttle</text>
	<text transform="matrix(1 0 0 1 90.2798 658.435)" class="st3 st4 st6">Shuttle</text>
	<text transform="matrix(1 0 0 1 297.7798 658.435)" class="st3 st4 st6">Shuttle</text>
	<text transform="matrix(1 0 0 1 505.2798 658.435)" class="st3 st4 st6">Shuttle</text>
	<text transform="matrix(1 0 0 1 712.7798 658.435)" class="st3 st4 st6">Shuttle</text>
	<text transform="matrix(1 0 0 1 90.2798 890.435)" class="st3 st4 st6">Shuttle</text>
	<text transform="matrix(1 0 0 1 297.7798 890.435)" class="st3 st4 st6">Shuttle</text>
	<text transform="matrix(1 0 0 1 505.2798 890.435)" class="st3 st4 st6">Shuttle</text>
	<text transform="matrix(1 0 0 1 712.7798 890.435)" class="st3 st4 st6">Shuttle</text>
	<text transform="matrix(1 0 0 1 90.2798 1122.4351)" class="st3 st4 st6">Shuttle</text>
	<text transform="matrix(1 0 0 1 297.7798 1122.4351)" class="st3 st4 st6">Shuttle</text>
	<text transform="matrix(1 0 0 1 20.4288 155.2175)" class="st3 st4 st6">Vert</text>
	<text transform="matrix(1 0 0 1 227.9288 155.2175)" class="st3 st4 st6">Vert</text>
	<text transform="matrix(1 0 0 1 435.4288 155.2175)" class="st3 st4 st6">Vert</text>
	<text transform="matrix(1 0 0 1 642.9288 155.2175)" class="st3 st4 st6">Vert</text>
	<text transform="matrix(1 0 0 1 20.4288 387.2175)" class="st3 st4 st6">Vert</text>
	<text transform="matrix(1 0 0 1 227.9288 387.2175)" class="st3 st4 st6">Vert</text>
	<text transform="matrix(1 0 0 1 435.4288 387.2175)" class="st3 st4 st6">Vert</text>
	<text transform="matrix(1 0 0 1 642.9288 387.2175)" class="st3 st4 st6">Vert</text>
	<text transform="matrix(1 0 0 1 20.4288 619.2175)" class="st3 st4 st6">Vert</text>
	<text transform="matrix(1 0 0 1 227.9288 619.2175)" class="st3 st4 st6">Vert</text>
	<text transform="matrix(1 0 0 1 435.4288 619.2175)" class="st3 st4 st6">Vert</text>
	<text transform="matrix(1 0 0 1 642.9288 619.2175)" class="st3 st4 st6">Vert</text>
	<text transform="matrix(1 0 0 1 20.4288 851.2175)" class="st3 st4 st6">Vert</text>
	<text transform="matrix(1 0 0 1 227.9288 851.2175)" class="st3 st4 st6">Vert</text>
	<text transform="matrix(1 0 0 1 435.4288 851.2175)" class="st3 st4 st6">Vert</text>
	<text transform="matrix(1 0 0 1 642.9288 851.2175)" class="st3 st4 st6">Vert</text>
	<text transform="matrix(1 0 0 1 20.4288 1083.2175)" class="st3 st4 st6">Vert</text>
	<text transform="matrix(1 0 0 1 227.9288 1083.2175)" class="st3 st4 st6">Vert</text>
	<text transform="matrix(1 0 0 1 20.4288 76.7825)" class="st3 st4 st6">Yd40</text>
	<text transform="matrix(1 0 0 1 227.9288 76.7825)" class="st3 st4 st6">Yd40</text>
	<text transform="matrix(1 0 0 1 435.4288 76.7825)" class="st3 st4 st6">Yd40</text>
	<text transform="matrix(1 0 0 1 642.9288 76.7825)" class="st3 st4 st6">Yd40</text>
	<text transform="matrix(1 0 0 1 20.4288 308.7825)" class="st3 st4 st6">Yd40</text>
	<text transform="matrix(1 0 0 1 227.9288 308.7825)" class="st3 st4 st6">Yd40</text>
	<text transform="matrix(1 0 0 1 435.4288 308.7825)" class="st3 st4 st6">Yd40</text>
	<text transform="matrix(1 0 0 1 642.9288 308.7825)" class="st3 st4 st6">Yd40</text>
	<text transform="matrix(1 0 0 1 20.4288 540.7825)" class="st3 st4 st6">Yd40</text>
	<text transform="matrix(1 0 0 1 227.9288 540.7825)" class="st3 st4 st6">Yd40</text>
	<text transform="matrix(1 0 0 1 435.4288 540.7825)" class="st3 st4 st6">Yd40</text>
	<text transform="matrix(1 0 0 1 642.9288 540.7825)" class="st3 st4 st6">Yd40</text>
	<text transform="matrix(1 0 0 1 20.4288 772.7825)" class="st3 st4 st6">Yd40</text>
	<text transform="matrix(1 0 0 1 227.9288 772.7825)" class="st3 st4 st6">Yd40</text>
	<text transform="matrix(1 0 0 1 435.4288 772.7825)" class="st3 st4 st6">Yd40</text>
	<text transform="matrix(1 0 0 1 642.9288 772.7825)" class="st3 st4 st6">Yd40</text>
	<text transform="matrix(1 0 0 1 20.4288 1004.7825)" class="st3 st4 st6">Yd40</text>
	<text transform="matrix(1 0 0 1 227.9288 1004.7825)" class="st3 st4 st6">Yd40</text>
</g>
</svg>
